<svg xmlns="http://www.w3.org/2000/svg" width="181" height="135" viewBox="0 0 181 135" fill="none">
  <path d="M180.5 118.312H0.5V118.402H180.5V118.312Z" fill="#EBEBEB"/>
  <path d="M162.464 124.105H150.541V124.195H162.464V124.105Z" fill="#EBEBEB"/>
  <path d="M119.739 125.083H116.61V125.173H119.739V125.083Z" fill="#EBEBEB"/>
  <path d="M150.18 120.763H143.271V120.853H150.18V120.763Z" fill="#EBEBEB"/>
  <path d="M34.9347 121.367H19.3853V121.457H34.9347V121.367Z" fill="#EBEBEB"/>
  <path d="M40.42 121.367H38.1401V121.457H40.42V121.367Z" fill="#EBEBEB"/>
  <path d="M81.553 122.888H47.8296V122.978H81.553V122.888Z" fill="#EBEBEB"/>
  <path d="M85.8249 102.256H16.3093C15.1764 102.256 14.2544 101.334 14.2544 100.201V2.48554C14.2544 1.35262 15.1764 0.430664 16.3093 0.430664H85.8249C86.9575 0.430664 87.8794 1.35262 87.8794 2.48554V100.201C87.8794 101.334 86.9575 102.256 85.8249 102.256ZM16.3093 0.521024C15.2257 0.521024 14.3444 1.4023 14.3444 2.4859V100.201C14.3444 101.285 15.2257 102.166 16.3093 102.166H85.8249C86.9082 102.166 87.7894 101.285 87.7894 100.201V2.48554C87.7894 1.4023 86.9082 0.520664 85.8249 0.520664L16.3093 0.521024Z" fill="#EBEBEB"/>
  <path d="M163.691 102.256H94.1761C93.0432 102.256 92.1216 101.334 92.1216 100.201V2.48554C92.1216 1.35262 93.0435 0.430664 94.1761 0.430664H163.691C164.825 0.430664 165.746 1.35262 165.746 2.48554V100.201C165.747 101.334 164.825 102.256 163.691 102.256ZM94.1761 0.521024C93.0929 0.521024 92.2116 1.4023 92.2116 2.4859V100.201C92.2116 101.285 93.0929 102.166 94.1761 102.166H163.691C164.775 102.166 165.656 101.285 165.656 100.201V2.48554C165.656 1.4023 164.775 0.520664 163.691 0.520664L94.1761 0.521024Z" fill="#EBEBEB"/>
  <path d="M93.5038 118.312H103.904V81.2603H93.5038V118.312Z" fill="#E6E6E6"/>
  <path d="M95.4787 118.311H93.5034V114.877H97.5498L95.4787 118.311Z" fill="#F0F0F0"/>
  <path d="M152.842 118.312H163.242V81.2603H152.842V118.312Z" fill="#E6E6E6"/>
  <path d="M93.5039 117.41L154.566 117.41V81.2597H93.5039V117.41Z" fill="#F0F0F0"/>
  <path d="M134.435 83.4068V115.404H152.535V83.4068H134.435Z" fill="#E6E6E6"/>
  <path d="M141.695 85.2414H145.276C146.831 85.2414 148.318 84.4947 149.388 83.1768H137.582C138.652 84.4947 140.139 85.2414 141.695 85.2414Z" fill="#F0F0F0"/>
  <path d="M114.984 83.4068V115.404H133.085V83.4068H114.984Z" fill="#E6E6E6"/>
  <path d="M122.061 85.2414H125.642C127.198 85.2414 128.685 84.4947 129.755 83.1768H117.949C119.019 84.4947 120.506 85.2414 122.061 85.2414Z" fill="#F0F0F0"/>
  <path d="M95.5337 83.4068V115.404H113.634V83.4068H95.5337Z" fill="#E6E6E6"/>
  <path d="M102.611 85.2414H106.192C107.747 85.2414 109.234 84.4947 110.304 83.1768H98.498C99.5683 84.4947 101.055 85.2414 102.611 85.2414Z" fill="#F0F0F0"/>
  <path d="M152.591 118.311H154.566V114.877H150.52L152.591 118.311Z" fill="#F0F0F0"/>
  <path d="M28.0951 71.627L97.8721 71.627L97.8721 12.2147L28.0951 12.2147L28.0951 71.627Z" fill="#E6E6E6"/>
  <path d="M26.5243 71.627L97.1895 71.627L97.1895 12.2147L26.5243 12.2147L26.5243 71.627Z" fill="#F5F5F5"/>
  <path d="M94.3711 68.7762L94.3711 15.0664L29.3436 15.0664L29.3436 68.7762L94.3711 68.7762Z" fill="#FAFAFA"/>
  <path d="M86.3914 68.7762L60.7983 15.0664H52.105L77.6985 68.7762H86.3914Z" fill="white"/>
  <path d="M75.2345 68.7762L49.641 15.0664H43.6553L69.2484 68.7762H75.2345Z" fill="white"/>
  <path d="M53.4893 68.7762L53.4893 15.0664H50.1265L50.1265 68.7762H53.4893Z" fill="#E6E6E6"/>
  <path d="M75.8408 68.7762L75.8408 15.0664H72.4781L72.4781 68.7762H75.8408Z" fill="#E6E6E6"/>
  <path d="M52.8828 70.5852L52.8828 12.9463H48.6323L48.6323 70.5852H52.8828Z" fill="#F5F5F5"/>
  <path d="M75.2349 70.5852L75.2349 12.9463H70.9843L70.9843 70.5852H75.2349Z" fill="#F5F5F5"/>
  <path d="M29.6426 68.7762L29.6426 15.0664H29.3434L29.3434 68.7762H29.6426Z" fill="#E6E6E6"/>
  <path d="M25.3411 8.54883H100.937C101.137 8.54883 101.3 8.71227 101.3 8.91243C101.3 9.11223 101.137 9.27603 100.937 9.27603H25.3411C25.1413 9.27603 24.9775 9.11259 24.9775 8.91243C24.9775 8.71227 25.1413 8.54883 25.3411 8.54883Z" fill="#E6E6E6"/>
  <path d="M97.872 10.9475C98.142 10.9475 98.3627 10.7265 98.3627 10.4569V9.40279C98.3627 9.13279 98.142 8.91211 97.872 8.91211C97.602 8.91211 97.3813 9.13315 97.3813 9.40279V10.4569C97.3813 10.7269 97.602 10.9475 97.872 10.9475Z" fill="#E6E6E6"/>
  <path d="M30.8237 10.9475C31.0937 10.9475 31.3144 10.7265 31.3144 10.4569V9.40279C31.3144 9.13279 31.0937 8.91211 30.8237 8.91211C30.5537 8.91211 30.333 9.13315 30.333 9.40279V10.4569C30.3326 10.7269 30.5537 10.9475 30.8237 10.9475Z" fill="#E6E6E6"/>
  <path opacity="0.6" d="M25.4572 38.3994L96.0708 38.3994V8.91181L25.4572 8.91181V38.3994Z" fill="#E0E0E0"/>
  <path d="M26.4236 118.311H28.2373L28.2373 88.5591H26.4236L26.4236 118.311Z" fill="#E6E6E6"/>
  <path d="M68.987 82.7695H59.1626V88.5594H68.987V82.7695Z" fill="#E6E6E6"/>
  <path d="M20.1418 88.5596H59.1626V82.7697H20.1418V88.5596Z" fill="#F5F5F5"/>
  <path d="M68.987 92.1592H59.1626V97.9491H68.987V92.1592Z" fill="#E6E6E6"/>
  <path d="M20.1418 97.9492H59.1626V92.1593H20.1418V97.9492Z" fill="#F5F5F5"/>
  <path d="M68.987 101.549H59.1626V107.339H68.987V101.549Z" fill="#E6E6E6"/>
  <path d="M20.1418 107.339H59.1626V101.549H20.1418V107.339Z" fill="#F5F5F5"/>
  <path d="M65.4446 118.311H67.2583V88.5591H65.4446V118.311Z" fill="#E6E6E6"/>
  <path d="M57.3489 118.311H59.1626L59.1626 88.5591H57.3489V118.311Z" fill="#F5F5F5"/>
  <path d="M20.1419 118.311H21.9556L21.9556 88.5591H20.1419L20.1419 118.311Z" fill="#F5F5F5"/>
  <path d="M90.5002 134.57C129.05 134.57 160.3 132.745 160.3 130.493C160.3 128.242 129.05 126.417 90.5002 126.417C51.9507 126.417 20.7002 128.242 20.7002 130.493C20.7002 132.745 51.9507 134.57 90.5002 134.57Z" fill="#F5F5F5"/>
  <path d="M143.063 114.15H84.5956C82.1325 114.15 80.2709 112.134 80.4589 109.671L87.6218 15.7958C87.8097 13.3327 89.9787 11.3174 92.4418 11.3174H150.909C153.372 11.3174 155.233 13.3327 155.045 15.7958L147.883 109.671C147.695 112.134 145.526 114.15 143.063 114.15Z" fill="#1A72E9"/>
  <path opacity="0.5" d="M143.063 114.15H84.5956C82.1325 114.15 80.2709 112.134 80.4589 109.671L87.6218 15.7958C87.8097 13.3327 89.9787 11.3174 92.4418 11.3174H150.909C153.372 11.3174 155.233 13.3327 155.045 15.7958L147.883 109.671C147.695 112.134 145.526 114.15 143.063 114.15Z" fill="white"/>
  <path d="M142.192 114.15H83.725C81.2619 114.15 79.4003 112.134 79.5883 109.671L86.7512 15.7958C86.9391 13.3327 89.1081 11.3174 91.5712 11.3174H150.038C152.501 11.3174 154.363 13.3327 154.174 15.7958L147.012 109.671C146.824 112.134 144.655 114.15 142.192 114.15Z" fill="#1A72E9"/>
  <path opacity="0.7" d="M142.192 114.15H83.725C81.2619 114.15 79.4003 112.134 79.5883 109.671L86.7512 15.7958C86.9391 13.3327 89.1081 11.3174 91.5712 11.3174H150.038C152.501 11.3174 154.363 13.3327 154.174 15.7958L147.012 109.671C146.824 112.134 144.655 114.15 142.192 114.15Z" fill="white"/>
  <path d="M83.8391 112.656C82.1929 112.656 80.9559 111.317 81.0815 109.671L88.1494 17.0392C88.2751 15.3929 89.7165 14.0537 91.3628 14.0537H149.83C151.476 14.0537 152.713 15.3929 152.587 17.0392L145.519 109.671C145.394 111.317 143.952 112.656 142.306 112.656H83.8391Z" fill="#1A72E9"/>
  <path opacity="0.2" d="M141.895 29.6362H100.054C99.081 29.6362 98.3455 28.8399 98.4197 27.8664C98.4939 26.893 99.351 26.0967 100.324 26.0967H142.165C143.139 26.0967 143.874 26.893 143.8 27.8664C143.726 28.8399 142.868 29.6362 141.895 29.6362Z" fill="black"/>
  <path opacity="0.3" d="M124.045 13.142H117.286C117.047 13.142 116.866 12.9461 116.884 12.7067C116.902 12.4673 117.113 12.2715 117.353 12.2715H124.112C124.351 12.2715 124.532 12.4673 124.514 12.7067C124.496 12.9461 124.285 13.142 124.045 13.142Z" fill="#1A72E9"/>
  <path d="M99.8711 27.8668C100.078 25.1596 98.0498 22.9697 95.3477 22.9697H137.825C140.527 22.9697 142.555 25.16 142.349 27.8668H99.8711Z" fill="#F0F0F0"/>
  <path d="M95.3474 22.9697C92.6452 22.9697 90.2833 25.16 90.0766 27.8668L85.7239 84.9153C85.5172 87.6225 83.1553 89.8124 80.4531 89.8124H122.931C125.633 89.8124 127.995 87.6221 128.201 84.9153L132.554 27.8668C132.761 25.1596 135.123 22.9697 137.825 22.9697H95.3474Z" fill="white"/>
  <path d="M118.407 84.915C118.2 87.6222 120.228 89.8121 122.93 89.8121H80.4529C77.7508 89.8121 75.7229 87.6219 75.9295 84.915H118.407Z" fill="#F0F0F0"/>
  <path d="M93.5434 83.7889C93.7026 81.7042 93.0481 80.0176 90.9673 80.0176H123.678C125.759 80.0176 127.324 81.922 126.254 83.7889H93.5434Z" fill="#E0E0E0"/>
  <path d="M118.407 84.9156C118.613 82.2084 120.975 80.0186 123.677 80.0186H81.2C78.4978 80.0186 76.1355 82.2088 75.9292 84.9156H118.407Z" fill="#F0F0F0"/>
  <path d="M138.492 99.0594H89.7282C89.0211 99.0594 88.4869 98.4809 88.5409 97.7738C88.5949 97.0668 89.2173 96.4883 89.9243 96.4883H138.688C139.395 96.4883 139.929 97.0668 139.875 97.7738C139.821 98.4809 139.199 99.0594 138.492 99.0594Z" fill="white"/>
  <path d="M113.867 105.237H89.257C88.5499 105.237 88.0157 104.659 88.0697 103.952C88.1237 103.245 88.7461 102.666 89.4532 102.666H114.063C114.77 102.666 115.304 103.245 115.25 103.952C115.196 104.659 114.574 105.237 113.867 105.237Z" fill="white"/>
  <path d="M130.905 105.237H120.936C120.229 105.237 119.695 104.659 119.749 103.952C119.803 103.245 120.425 102.666 121.132 102.666H131.101C131.808 102.666 132.342 103.245 132.288 103.952C132.234 104.659 131.612 105.237 130.905 105.237Z" fill="white"/>
  <path d="M140.874 80.7916L138.33 81.1901C138.228 80.8704 138.132 80.6483 138.04 80.5244C137.948 80.4006 137.79 80.2757 137.565 80.1493L137.416 82.1041C138.757 82.4695 139.642 82.8551 140.071 83.2604C140.637 83.8058 140.888 84.4978 140.825 85.3362C140.787 85.8276 140.644 86.2783 140.394 86.6884C140.144 87.0988 139.839 87.4411 139.478 87.7162C139.116 87.9912 138.74 88.1906 138.348 88.3145C137.955 88.4383 137.481 88.5118 136.925 88.5341L136.828 89.811H135.841L135.939 88.5341C135.281 88.4754 134.752 88.3685 134.352 88.2133C133.952 88.0578 133.612 87.8429 133.333 87.5682C133.055 87.2935 132.847 86.9972 132.708 86.6797C132.571 86.3622 132.478 85.9781 132.432 85.5277L135.186 85.2102C135.233 85.6562 135.317 85.9781 135.439 86.1764C135.562 86.3748 135.775 86.5505 136.078 86.7035L136.261 84.316C135.37 84.0636 134.741 83.8447 134.375 83.6597C134.008 83.475 133.701 83.1787 133.453 82.7705C133.205 82.3626 133.103 81.8658 133.148 81.2794C133.209 80.4769 133.54 79.8066 134.142 79.2677C134.744 78.7291 135.601 78.4307 136.714 78.372L136.765 77.7031H137.752L137.701 78.372C138.705 78.435 139.458 78.6737 139.96 79.0884C140.462 79.5031 140.767 80.0708 140.874 80.7916ZM136.581 80.1158C136.285 80.2109 136.076 80.3286 135.953 80.469C135.829 80.6094 135.761 80.7746 135.746 80.9644C135.731 81.1634 135.775 81.3366 135.878 81.4839C135.981 81.6311 136.171 81.7542 136.449 81.8532L136.581 80.1158ZM137.059 86.7712C137.449 86.6855 137.74 86.544 137.933 86.3474C138.126 86.1509 138.232 85.9306 138.25 85.6865C138.266 85.4741 138.206 85.2786 138.069 85.1C137.932 84.9215 137.651 84.7555 137.225 84.6025L137.059 86.7712Z" fill="white"/>
  <path d="M92.921 38.8496H94.1317L93.8332 42.7589H92.6226L92.921 38.8496Z" fill="#1A72E9"/>
  <path d="M95.0063 38.8496H96.1342L97.441 41.0121L97.6059 38.8496H98.7446L98.4461 42.7589H97.3074L96.0071 40.6125L95.8433 42.7589H94.7075L95.0063 38.8496Z" fill="#1A72E9"/>
  <path d="M99.1631 38.8496H100.426L101.091 41.6626L102.174 38.8496H103.4L101.65 42.7589H100.341L99.1631 38.8496Z" fill="#1A72E9"/>
  <path d="M103.307 40.8068C103.355 40.1685 103.571 39.6717 103.954 39.3164C104.336 38.9607 104.845 38.7832 105.48 38.7832C106.13 38.7832 106.618 38.9578 106.944 39.307C107.269 39.6562 107.408 40.1454 107.359 40.7747C107.324 41.2316 107.219 41.6063 107.043 41.8986C106.867 42.191 106.627 42.4185 106.324 42.5812C106.021 42.7439 105.653 42.8253 105.219 42.8253C104.778 42.8253 104.419 42.7551 104.141 42.6147C103.862 42.4743 103.645 42.2522 103.489 41.948C103.333 41.6438 103.272 41.2636 103.307 40.8068ZM104.514 40.8122C104.484 41.2067 104.536 41.4904 104.669 41.6628C104.803 41.8353 104.996 41.9213 105.248 41.9213C105.508 41.9213 105.715 41.8371 105.87 41.6679C106.026 41.499 106.12 41.1959 106.153 40.7585C106.181 40.3906 106.127 40.1217 105.992 39.9518C105.857 39.7822 105.662 39.6972 105.407 39.6972C105.164 39.6972 104.962 39.7836 104.801 39.9561C104.64 40.1285 104.545 40.414 104.514 40.8122Z" fill="#1A72E9"/>
  <path d="M108.205 38.8496H109.416L109.117 42.7589H107.907L108.205 38.8496Z" fill="#1A72E9"/>
  <path d="M112.708 41.1585L113.743 41.4785C113.649 41.7755 113.518 42.0236 113.35 42.2226C113.182 42.4217 112.981 42.5718 112.746 42.6734C112.512 42.7745 112.219 42.8253 111.869 42.8253C111.444 42.8253 111.102 42.7634 110.842 42.6402C110.582 42.5168 110.366 42.2997 110.194 41.9886C110.023 41.678 109.955 41.2798 109.992 40.7949C110.041 40.1483 110.251 39.6512 110.622 39.3041C110.992 38.9567 111.492 38.7832 112.122 38.7832C112.614 38.7832 112.993 38.8826 113.26 39.082C113.526 39.2811 113.712 39.5867 113.818 39.9993L112.733 40.2365C112.705 40.1174 112.672 40.0302 112.636 39.9752C112.575 39.8826 112.498 39.8117 112.404 39.762C112.31 39.7124 112.202 39.6875 112.082 39.6875C111.808 39.6875 111.589 39.7977 111.427 40.0176C111.304 40.1811 111.23 40.4374 111.203 40.7873C111.17 41.2204 111.213 41.5174 111.332 41.6783C111.452 41.8389 111.631 41.9192 111.869 41.9192C112.1 41.9192 112.28 41.8544 112.408 41.7244C112.536 41.5937 112.636 41.4054 112.708 41.1585Z" fill="#1A72E9"/>
  <path d="M114.527 38.8496H117.765L117.701 39.6841H115.674L115.627 40.3055H117.507L117.446 41.1029H115.566L115.507 41.8736H117.592L117.525 42.7589H114.229L114.527 38.8496Z" fill="#1A72E9"/>
  <path d="M127.35 47.8075H92.2373L92.3118 46.833H127.425L127.35 47.8075Z" fill="#1A72E9"/>
  <path d="M127.35 47.8076H92.2373L92.0098 50.7891H127.123L127.35 47.8076Z" fill="#F0F0F0"/>
  <path d="M126.895 53.7705H91.7822L91.5547 56.752H126.668L126.895 53.7705Z" fill="#F0F0F0"/>
  <path d="M126.44 59.7344H91.3271L91.0996 62.7159H126.213L126.44 59.7344Z" fill="#F0F0F0"/>
  <path d="M125.985 65.6973H90.8721L90.6445 68.6791H125.757L125.985 65.6973Z" fill="#F0F0F0"/>
  <path d="M125.456 72.6347H90.3428L90.4169 71.6602H125.53L125.456 72.6347Z" fill="#1A72E9"/>
  <path d="M121.439 29.6367H128.736L128.404 33.9906H121.106L121.439 29.6367Z" fill="#F0F0F0"/>
  <path d="M49.8843 57.3296L51.1896 57.8538C51.6648 58.0446 52.0817 58.3563 52.3989 58.7581L52.9968 59.5152C53.3928 60.017 53.3745 60.7298 52.9529 61.2104L52.3168 61.9358C51.8294 62.4913 50.9819 62.5413 50.4329 62.0467L49.8245 61.4988C49.8245 61.4988 47.9514 60.1837 47.4014 58.4467L47.7628 58.0853C48.351 57.4967 49.1312 57.2187 49.8843 57.3296Z" fill="#FFB573"/>
  <path d="M53.4574 44.6979L53.0326 44.9779L52.5599 45.3027C52.2456 45.5266 51.9302 45.7548 51.6221 45.9921C51.0086 46.4691 50.4092 46.9626 49.8538 47.4868C48.7342 48.5265 47.7604 49.6673 47.0692 50.8794C46.9806 51.0303 46.8993 51.1833 46.8244 51.337L46.7653 51.4522C46.7772 51.4245 46.797 51.3406 46.8038 51.3057C46.8193 51.2074 46.8172 51.1537 46.811 51.1231C46.7765 51.0191 46.7733 51.2895 46.8546 51.5566C47.0152 52.1268 47.3478 52.8522 47.7164 53.551C48.4577 54.969 49.3883 56.4267 50.2642 57.8645L50.2872 57.9019C50.6505 58.4985 50.4615 59.2768 49.8649 59.6404C49.4045 59.9208 48.8339 59.8704 48.4314 59.5594C47.6909 58.9848 47.0292 58.3919 46.3726 57.7511C45.7188 57.1139 45.0949 56.4385 44.4966 55.7027C43.9055 54.9528 43.3281 54.1828 42.8413 53.1359C42.72 52.8706 42.6037 52.5837 42.5044 52.2503C42.4057 51.918 42.3255 51.5292 42.3179 51.0385C42.3172 50.7909 42.3348 50.5191 42.4061 50.2105C42.4345 50.0687 42.4961 49.884 42.5429 49.7533L42.6124 49.5687C42.7031 49.3203 42.8014 49.0773 42.9079 48.8393C43.7532 46.9227 44.9823 45.3045 46.3398 43.9095C47.0231 43.2118 47.7445 42.5692 48.5023 41.9755C48.8821 41.6796 49.2673 41.3923 49.6687 41.1216C49.87 40.9863 50.0701 40.8498 50.2804 40.7209L50.6004 40.5265L50.9655 40.3156C52.1689 39.6201 53.7083 40.0323 54.4038 41.2357C55.0727 42.3939 54.7167 43.863 53.6165 44.5917L53.4574 44.6979Z" fill="#FFB573"/>
  <path d="M53.4986 38.9864C51.3948 38.9986 49.0919 39.8972 46.1392 43.5573C46.1392 45.7425 50.7518 48.6474 50.7518 48.6474C50.7518 48.6474 58.3129 38.9587 53.4986 38.9864Z" fill="#263238"/>
  <path d="M37.8797 125.526C37.843 125.526 37.8063 125.519 37.7685 125.506C37.3318 125.353 36.9214 124.242 36.8951 123.626C36.8933 123.586 36.9153 123.549 36.9509 123.531C36.9869 123.513 37.029 123.518 37.0604 123.543C37.1064 123.581 38.1922 124.47 38.2433 125.067C38.2541 125.195 38.2206 125.304 38.1443 125.392C38.0673 125.48 37.9762 125.526 37.8797 125.526ZM37.1252 123.866C37.2238 124.452 37.5575 125.217 37.8358 125.315C37.8758 125.329 37.9265 125.334 37.992 125.259C38.0316 125.213 38.0478 125.156 38.0421 125.085C38.0115 124.733 37.4776 124.183 37.1252 123.866Z" fill="#263238"/>
  <path d="M38.5555 124.205C38.0508 124.205 37.3225 123.961 36.9405 123.706C36.9074 123.684 36.8901 123.645 36.897 123.606C36.9035 123.566 36.9326 123.534 36.9708 123.524C37.0284 123.509 38.3859 123.155 38.8993 123.467C39.0091 123.533 39.0775 123.624 39.1031 123.738C39.1387 123.895 39.093 124.026 38.9738 124.109C38.8766 124.176 38.729 124.205 38.5555 124.205ZM37.2703 123.662C37.8013 123.927 38.616 124.109 38.859 123.942C38.8946 123.917 38.9277 123.88 38.9058 123.783C38.8925 123.724 38.8561 123.677 38.7945 123.64C38.4929 123.457 37.7336 123.564 37.2703 123.662Z" fill="#263238"/>
  <path d="M33.167 123.384C33.7754 122.642 34.7996 121.652 35.8529 119.571C35.8529 119.571 39.1919 120.393 38.536 121.356C37.3466 123.104 36.7666 126.691 38.2995 128.614C39.1743 129.712 37.7904 129.894 36.876 129.424C35.4213 128.677 35.4828 128.399 34.7276 127.163C34.0814 126.106 33.8261 125.692 32.9373 125.24C32.195 124.863 32.556 124.13 33.167 123.384Z" fill="#1A72E9"/>
  <path d="M61.4983 60.6875C61.4983 60.6875 56.6523 84.3039 53.1092 94.3896C49.3879 104.982 39.1109 121.327 38.716 122.029C37.2551 121.639 35.9523 121.128 35.084 120.279C35.084 120.279 39.908 102.549 44.6121 91.0474C46.397 67.0372 50.3325 60.6875 50.3325 60.6875H61.4983Z" fill="#263238"/>
  <path opacity="0.2" d="M54.1057 73.3219C53.8861 77.8903 53.7349 84.1723 53.9509 91.8187C55.4305 87.0523 57.0397 80.5903 58.3933 74.7907C57.4901 73.5847 56.0857 73.0051 54.1057 73.3219Z" fill="black"/>
  <path d="M54.3975 31.7285C54.9061 33.782 55.4026 37.1318 54.5933 38.9148C54.5933 38.9148 57.6241 39.0488 61.4981 42.1422C63.3222 39.4631 61.2112 38.9375 61.2112 38.9375C59.6009 38.5595 59.6801 36.415 59.6823 34.8875L54.3975 31.7285Z" fill="#FFB573"/>
  <path d="M53.6348 39.8476C52.1228 39.6806 53.1686 36.8078 53.9545 37.0875C55.9403 37.7949 60.3967 37.0076 61.7748 37.7676C63.1529 38.5275 62.8047 40.0874 62.8047 40.0874C62.8047 40.0874 55.2642 40.0276 53.6348 39.8476Z" fill="#1A72E9"/>
  <path opacity="0.7" d="M53.6348 39.8476C52.1228 39.6806 53.1686 36.8078 53.9545 37.0875C55.9403 37.7949 60.3967 37.0076 61.7748 37.7676C63.1529 38.5275 62.8047 40.0874 62.8047 40.0874C62.8047 40.0874 55.2642 40.0276 53.6348 39.8476Z" fill="white"/>
  <path d="M62.4561 28.1025C62.5047 28.3772 62.6898 28.5744 62.8694 28.5424C63.0491 28.5107 63.1553 28.262 63.1067 27.9873C63.0581 27.7126 62.873 27.5153 62.6934 27.5474C62.5134 27.579 62.4075 27.8278 62.4561 28.1025Z" fill="#263238"/>
  <path d="M62.6167 27.5766L63.2431 27.2695C63.2431 27.2695 62.9958 27.8452 62.6167 27.5766Z" fill="#263238"/>
  <path d="M62.8232 25.9059C62.8427 25.8703 62.8495 25.8271 62.838 25.785C62.8146 25.6975 62.725 25.6453 62.6375 25.6687C61.7612 25.902 61.5168 26.618 61.5067 26.649C61.4786 26.735 61.5251 26.8275 61.6111 26.856C61.6968 26.884 61.7893 26.8376 61.8181 26.7519C61.8271 26.7238 62.0251 26.1712 62.7217 25.9858C62.7667 25.9736 62.8024 25.9437 62.8232 25.9059Z" fill="#263238"/>
  <path d="M62.7812 28.7705C62.7812 28.7705 63.3771 29.9168 63.9559 30.4391C63.6251 30.8193 62.9857 30.7282 62.9857 30.7282L62.7812 28.7705Z" fill="#ED893E"/>
  <path d="M53.0596 27.9622C53.8606 31.3016 54.1299 32.7322 56.1088 34.1686C59.0853 36.3293 62.9308 34.624 63.1238 31.1147C63.2977 27.9561 61.9581 23.0255 58.4801 22.2562C55.0533 21.4984 52.2586 24.6229 53.0596 27.9622Z" fill="#FFB573"/>
  <path d="M59.5325 28.5767C61.4988 25.9775 62.7818 23.8772 61.8113 21.5768C61.0005 19.6541 58.7588 20.2168 58.4456 21.1769C52.4822 20.6675 50.3417 22.8275 51.5725 26.4016C52.3566 28.6786 49.311 27.4978 50.0526 30.39C50.621 32.6076 48.6155 33.4525 49.6335 34.7276C51.1027 36.5676 54.1325 34.1678 57.5924 35.5477C60.4231 36.6763 64.6769 34.9674 59.5325 28.5767Z" fill="#263238"/>
  <path d="M59.2127 29.1024C59.6004 29.714 60.1854 30.0546 60.706 30.1305C61.489 30.2447 61.7579 29.3677 61.4379 28.5537C61.1499 27.8211 60.3953 26.8787 59.6587 27.1404C58.9333 27.3978 58.7695 28.4029 59.2127 29.1024Z" fill="#FFB573"/>
  <path d="M60.3757 127.727C59.8753 127.727 59.0559 127.33 58.6725 126.984C58.643 126.958 58.6318 126.916 58.6441 126.878C58.6559 126.84 58.6894 126.813 58.729 126.809C58.7877 126.802 60.1831 126.65 60.6453 127.033C60.7439 127.115 60.7987 127.215 60.8073 127.331C60.8195 127.492 60.7551 127.615 60.6255 127.679C60.5578 127.712 60.4729 127.727 60.3757 127.727ZM59.0051 126.989C59.4922 127.329 60.2731 127.627 60.5362 127.497C60.5747 127.478 60.6133 127.446 60.6057 127.347C60.601 127.286 60.5719 127.235 60.5164 127.189C60.2446 126.964 59.4775 126.96 59.0051 126.989Z" fill="#263238"/>
  <path d="M58.7403 127.011C58.7082 127.011 58.6776 126.996 58.6586 126.969C58.6348 126.937 58.633 126.894 58.6524 126.859C58.682 126.808 59.3807 125.591 59.9628 125.443C60.087 125.411 60.1994 125.426 60.2991 125.488C60.4362 125.572 60.4982 125.697 60.473 125.84C60.3934 126.295 59.3649 126.882 58.7612 127.009C58.754 127.01 58.7475 127.011 58.7403 127.011ZM60.0842 125.629C60.0615 125.629 60.0381 125.633 60.0129 125.639C59.6716 125.726 59.2158 126.343 58.9606 126.742C59.5226 126.549 60.2228 126.095 60.2739 125.804C60.2811 125.762 60.2775 125.712 60.1929 125.66C60.1598 125.639 60.1238 125.629 60.0842 125.629Z" fill="#263238"/>
  <path d="M63.0501 128.992C60.1344 128.766 58.1699 126.764 58.3758 124.643C58.4892 123.473 54.7506 123.368 54.7506 123.368C55.3421 126.995 54.5998 127.512 54.3561 128.449C54.1113 129.39 54.1714 130.422 54.945 130.441C55.8713 130.464 56.3026 130.287 57.4535 130.332C58.7992 130.385 60.2547 130.437 62.6462 130.441C63.602 130.443 64.3468 129.092 63.0501 128.992Z" fill="#1A72E9"/>
  <path d="M66.5382 60.6875C66.5382 60.6875 66.284 78.573 64.8721 90.3274C63.4598 102.082 58.6063 125.136 58.6063 125.136C57.2037 125.408 55.8894 125.452 54.7291 125.1C54.7291 125.1 53.1955 107.09 55.772 89.6873C53.8791 71.4479 52.6958 60.6875 52.6958 60.6875H66.5382Z" fill="#263238"/>
  <path d="M67.2003 44.1411C67.1398 45.5231 69.3217 48.7185 66.629 50.5703C67.1322 51.695 67.5574 59.323 66.5382 60.6871C65.0518 61.7797 57.0054 61.5673 50.3328 60.6871C50.0509 57.9291 51.5691 52.2159 49.7093 43.3077C49.278 41.2424 50.731 39.2588 52.8301 39.0471C53.391 38.9906 53.9854 38.9434 54.5938 38.9143C56.959 38.8001 58.8965 38.7249 60.9759 38.9146C61.6649 38.9776 62.3773 39.0647 63.0574 39.1601C65.5119 39.5047 67.3086 41.6647 67.2003 44.1411Z" fill="#1A72E9"/>
  <g opacity="0.3">
    <path d="M49.8791 42.8272C49.8287 42.8542 49.7787 42.8819 49.7279 42.9082L49.7269 42.9089C49.7269 42.9089 49.7261 42.9096 49.7254 42.9096C49.6804 42.9338 49.6635 42.9903 49.688 43.0353C49.7125 43.0806 49.7686 43.0972 49.8136 43.0727C49.8687 43.0432 49.9223 43.0115 49.9767 42.9809C50.6909 43.2448 51.466 43.8409 51.9085 43.9021C51.1949 43.2714 50.6812 42.8196 50.1178 42.9017C50.2877 42.8031 50.4541 42.699 50.6186 42.5928C51.2752 42.8369 51.9862 43.383 52.3927 43.4396C51.731 42.8542 51.2554 42.4369 50.7323 42.519C50.8562 42.4373 50.9789 42.3542 51.0999 42.2685C51.1687 42.2202 51.2363 42.1702 51.3044 42.1205C51.8962 42.3776 52.5241 42.9219 52.8959 42.9953C52.3016 42.4049 51.88 41.9888 51.3753 42.0694C51.533 41.9528 51.6878 41.8321 51.8408 41.7097C52.3844 41.9473 52.9604 42.4456 53.3017 42.5133C52.7548 41.9704 52.3671 41.587 51.9031 41.6593C52.0341 41.5535 52.1644 41.4462 52.2926 41.3368C52.3235 41.3102 52.3541 41.2832 52.3851 41.2562C52.8646 41.5074 53.3402 42.0049 53.6527 42.0953C53.1998 41.551 52.8841 41.1744 52.4074 41.2367C52.5305 41.1298 52.6526 41.0218 52.7728 40.912C53.2138 41.1442 53.6509 41.6007 53.9381 41.6838C53.522 41.1838 53.2318 40.8375 52.7948 40.8918C52.9226 40.7752 53.0486 40.6568 53.1731 40.5362C53.5583 40.773 53.9263 41.2057 54.1815 41.2954C53.8352 40.8223 53.5918 40.4926 53.1998 40.5099C53.2678 40.4436 53.3355 40.3778 53.4025 40.3104C53.441 40.2716 53.4791 40.2316 53.5177 40.1924C53.8726 40.4105 54.2117 40.8094 54.4472 40.8918C54.1275 40.4555 53.9032 40.1513 53.5414 40.1682C53.6465 40.0602 53.7499 39.9504 53.851 39.8388C54.1768 40.0131 54.4817 40.3482 54.6995 40.412C54.4126 40.043 54.2121 39.7874 53.8658 39.8226C53.8845 39.8021 53.9039 39.7823 53.9223 39.7614C53.9957 39.6786 54.0685 39.5951 54.1394 39.5101C54.436 39.6721 54.7132 39.9753 54.9116 40.0332C54.6513 39.6981 54.4681 39.4644 54.1577 39.4886C54.242 39.3867 54.3226 39.2816 54.3971 39.1707C54.4061 39.1574 54.4029 39.139 54.3896 39.1296C54.3763 39.1203 54.3575 39.1235 54.3482 39.1372L54.3478 39.1379C54.2776 39.2384 54.2009 39.3345 54.1207 39.4284C54.1505 39.2679 54.0908 39.117 53.99 38.9521C53.9489 38.9547 53.9075 38.9568 53.8665 38.9597C53.9324 39.1246 54.0163 39.31 54.0631 39.4936C53.9986 39.567 53.9331 39.6394 53.8669 39.711C53.8514 39.7279 53.8348 39.7441 53.819 39.7607C53.8877 39.5011 53.7524 39.2744 53.5421 38.9838C53.5198 38.9856 53.4982 38.9878 53.4759 38.9896C53.5317 39.2117 53.7002 39.517 53.7711 39.8111C53.6764 39.9105 53.5803 40.0084 53.4824 40.1049C53.5735 39.774 53.3456 39.4806 53.0223 39.0674C53.0378 39.315 53.3265 39.746 53.4413 40.1452C53.4071 40.1787 53.3737 40.2125 53.3391 40.2456C53.2739 40.3083 53.2077 40.3698 53.1418 40.4314C53.2329 40.0768 52.9874 39.7603 52.6403 39.3161C52.6573 39.5829 52.9665 40.0469 53.0929 40.4778C52.9787 40.5837 52.8632 40.6877 52.7462 40.7907C52.8218 40.4321 52.5831 40.0826 52.2537 39.603C52.2555 39.8878 52.5464 40.394 52.6637 40.8623C52.5698 40.9444 52.4747 41.0254 52.379 41.1053C52.4632 40.7151 52.2037 40.3353 51.8455 39.8133C51.8476 40.1218 52.1626 40.6715 52.2904 41.1795C52.2652 41.2004 52.2404 41.2216 52.2148 41.2425C52.0838 41.3498 51.9506 41.4545 51.817 41.5578C51.9225 41.16 51.6745 40.7097 51.3339 40.0962C51.3073 40.4289 51.6039 41.0769 51.6997 41.6478C51.5492 41.762 51.3969 41.8735 51.2425 41.9819C51.416 41.5305 51.1363 41.0229 50.7439 40.3162C50.7143 40.6863 51.0531 41.4163 51.1481 42.0471C51.1031 42.078 51.0585 42.1101 51.0131 42.1407C50.8709 42.2364 50.7269 42.3286 50.5819 42.4193C50.7817 41.9621 50.5405 41.421 50.1873 40.6855C50.1707 40.7115 50.1524 40.7363 50.1365 40.7626C50.1639 41.1957 50.4137 41.8876 50.4699 42.4888C50.309 42.5867 50.1463 42.6814 49.9814 42.7717C50.1686 42.3912 50.0627 41.9578 49.8316 41.4167C49.7783 41.5694 49.7377 41.7263 49.7056 41.8865C49.7791 42.1975 49.8525 42.523 49.8791 42.8272Z" fill="#263238"/>
    <path d="M59.0769 40.3312C58.5333 39.9838 57.9994 39.3469 57.6441 39.2152C58.1373 39.8923 58.4876 40.3701 58.9988 40.3704C58.8245 40.4608 58.6528 40.5551 58.4822 40.6516C57.9829 40.3308 57.4933 39.7476 57.1671 39.6267C57.6207 40.2491 57.9433 40.6894 58.4127 40.6912C58.2665 40.7751 58.1207 40.8604 57.9771 40.9479C57.9422 40.9691 57.9076 40.9911 57.8731 41.0127C57.4393 40.6887 57.0487 40.122 56.7545 39.9831C57.1156 40.5922 57.3676 41.0141 57.8479 41.0281C57.7093 41.1138 57.5717 41.2013 57.4357 41.2909C57.0368 40.9921 56.6779 40.4719 56.4071 40.3441C56.7387 40.9039 56.9705 41.2917 57.4105 41.3071C57.2657 41.4022 57.1225 41.4994 56.9806 41.5984C56.6375 41.3035 56.3431 40.8179 56.1051 40.689C56.3722 41.211 56.5601 41.5753 56.95 41.62C56.8726 41.6743 56.7949 41.7287 56.7185 41.7845C56.6743 41.8169 56.6303 41.8504 56.5861 41.8828C56.27 41.611 55.9985 41.1635 55.7793 41.0447C56.0255 41.526 56.1991 41.8623 56.5591 41.9029C56.4381 41.9929 56.3186 42.0844 56.2012 42.1791C55.9071 41.9555 55.6591 41.5761 55.4542 41.4789C55.6792 41.8885 55.8365 42.1726 56.1839 42.1927C56.1623 42.21 56.14 42.2266 56.1184 42.2442C56.0327 42.3144 55.9478 42.3853 55.8643 42.4581C55.5971 42.2511 55.3714 41.908 55.1846 41.8194C55.3887 42.1913 55.5323 42.4512 55.8427 42.4768C55.7433 42.5643 55.6468 42.655 55.5561 42.7525C55.5449 42.7644 55.5457 42.7831 55.5572 42.7943C55.5691 42.8058 55.5878 42.8055 55.5993 42.7936L55.6 42.7932C55.6853 42.705 55.7764 42.6222 55.8704 42.5423C55.7829 42.7867 55.9096 43.0348 56.0846 43.3743C56.1145 43.1766 55.9672 42.8155 55.9373 42.4872C56.0126 42.4249 56.0889 42.3641 56.1656 42.3036C56.1836 42.2892 56.2023 42.2763 56.2207 42.2622C56.0972 42.5398 56.2387 42.817 56.4374 43.2029C56.4705 42.9844 56.3042 42.5819 56.2761 42.2201C56.3852 42.1369 56.4957 42.0552 56.6077 41.9757C56.4655 42.2881 56.644 42.6136 56.8975 43.0729C56.9212 42.826 56.7049 42.3547 56.6545 41.9425C56.6933 41.9148 56.7319 41.8867 56.7711 41.8594C56.8453 41.8079 56.9205 41.7575 56.9954 41.7071C56.8492 42.043 57.0415 42.3943 57.314 42.8879C57.3395 42.6219 57.1077 42.1146 57.0512 41.6693C57.1808 41.5829 57.3115 41.4983 57.4429 41.4155C57.3115 41.7575 57.4918 42.1405 57.7409 42.6661C57.7841 42.385 57.5775 41.8389 57.5357 41.3579C57.6416 41.292 57.7481 41.2272 57.8554 41.1631C57.7107 41.5354 57.9065 41.9512 58.1776 42.5236C58.2244 42.2183 58.0001 41.6261 57.9548 41.1041C57.9832 41.0875 58.0109 41.0703 58.0394 41.0541C58.1859 40.9691 58.3339 40.8867 58.4822 40.8057C58.3151 41.1815 58.4887 41.6661 58.7277 42.3252C58.8065 42.0012 58.6165 41.3143 58.6125 40.7351C58.7792 40.6462 58.9473 40.5601 59.1169 40.4777C58.8739 40.896 59.0697 41.4414 59.3451 42.2014C59.4329 41.8407 59.2141 41.0663 59.2202 40.4284C59.2695 40.405 59.3188 40.3805 59.3685 40.3575C59.524 40.2855 59.681 40.2171 59.8383 40.1505C59.5564 40.5893 59.7346 41.1927 59.9841 42.03C60.1022 41.6445 59.9143 40.792 59.9596 40.0997C60.1339 40.0281 60.3099 39.9607 60.487 39.8974C60.1475 40.3762 60.343 41.0404 60.6209 41.9721C60.7498 41.5501 60.5421 40.6141 60.5957 39.8599C60.6497 39.8412 60.7034 39.8218 60.7577 39.8041L60.7592 39.8038L60.7606 39.8031C60.8089 39.7861 60.8344 39.7332 60.8175 39.6846C60.8006 39.6364 60.7477 39.6108 60.6994 39.6277C60.6404 39.6483 60.5824 39.6709 60.5241 39.6925C60.1076 39.4582 59.6882 39.0906 59.3278 38.817C59.2321 38.8141 59.1359 38.8127 59.0398 38.8105C59.5089 39.366 59.8937 39.7419 60.3718 39.7487C60.1886 39.8193 60.0075 39.8952 59.8282 39.9744C59.2187 39.6292 58.6031 38.9772 58.2107 38.8577C58.7716 39.5403 59.1748 40.0277 59.704 40.0295C59.569 40.0907 59.4344 40.1533 59.3015 40.2185C59.2263 40.2545 59.1518 40.293 59.0769 40.3312Z" fill="#263238"/>
    <path d="M54.5796 47.0621C54.1825 46.6308 53.9042 46.3298 53.5165 46.391C53.5766 46.318 53.6367 46.2449 53.6958 46.1707C53.73 46.1275 53.7631 46.084 53.7969 46.0408C54.1742 46.2179 54.5555 46.5764 54.7985 46.6322C54.4323 46.2344 54.1753 45.9569 53.8175 46.0138C53.91 45.895 54.0003 45.7744 54.0885 45.652C54.432 45.7888 54.7722 46.0879 54.9957 46.1272C54.6696 45.7924 54.4417 45.5609 54.1015 45.6343C54.1177 45.6116 54.1346 45.5897 54.1508 45.567C54.2145 45.4766 54.2775 45.3856 54.3384 45.293C54.6512 45.4208 54.9605 45.6912 55.1642 45.7265C54.8679 45.4226 54.6602 45.2106 54.3542 45.2693C54.4266 45.1584 54.4953 45.0454 54.5565 44.9266C54.5641 44.9125 54.5587 44.8945 54.5443 44.887C54.5299 44.879 54.5119 44.8844 54.504 44.8988L54.5036 44.8996C54.4449 45.0072 54.3794 45.1112 54.3103 45.2138C54.3294 44.955 54.1407 44.7498 53.8815 44.4697C53.9057 44.6681 54.144 44.9766 54.2606 45.2851C54.2048 45.365 54.1476 45.4443 54.09 45.5231C54.0763 45.5415 54.0619 45.5594 54.0482 45.5778C54.0929 45.2772 53.8826 45.0482 53.5874 44.7293C53.6141 44.9485 53.8819 45.2923 54.0057 45.6333C53.9229 45.7427 53.8383 45.8507 53.7516 45.9572C53.8052 45.6181 53.546 45.3521 53.1788 44.9773C53.222 45.2214 53.5568 45.6178 53.7152 46.0019C53.685 46.039 53.6555 46.0764 53.6249 46.1131C53.5673 46.1826 53.5082 46.251 53.4495 46.3198C53.5007 45.9569 53.2213 45.67 52.8267 45.2675C52.8732 45.5306 53.2325 45.9572 53.4056 46.3712C53.3037 46.4893 53.2008 46.6056 53.096 46.7208C53.1309 46.3558 52.8552 46.0354 52.4743 45.5954C52.5078 45.878 52.853 46.3489 53.0222 46.8011C52.938 46.8929 52.8527 46.984 52.7663 47.0743C52.8062 46.6769 52.5063 46.3284 52.092 45.85C52.1287 46.1567 52.5031 46.6675 52.6863 47.1582C52.6637 47.1816 52.6413 47.2057 52.6183 47.2291C52.4999 47.3504 52.3796 47.4692 52.2579 47.5873C52.3184 47.1802 52.0214 46.7601 51.615 46.1887C51.6258 46.5221 51.9923 47.133 52.1514 47.6896C52.0146 47.8199 51.8756 47.9477 51.7345 48.0726C51.8565 47.6046 51.5221 47.1312 51.0534 46.4728C51.0653 46.8439 51.4836 47.5315 51.6481 48.1479C51.6067 48.1839 51.566 48.2206 51.5243 48.2558C51.3939 48.3671 51.2611 48.4747 51.1268 48.5809C51.2809 48.083 50.9479 47.5492 50.4831 46.809C50.4727 47.2122 50.8817 47.9833 51.0231 48.6623C50.8741 48.7778 50.7229 48.8898 50.5692 48.9982C50.6822 48.6843 50.6091 48.3574 50.4331 47.984C50.4763 48.4139 50.5094 48.8308 50.5386 49.2412C50.5551 49.2289 50.5717 49.2174 50.5883 49.2052C51.3273 49.3877 52.1643 49.8935 52.6107 49.905C51.8313 49.3578 51.2705 48.9661 50.72 49.1105C50.8777 48.9935 51.0318 48.8718 51.1833 48.7476C51.863 48.9172 52.6305 49.3805 53.0406 49.3913C52.3177 48.8837 51.7986 48.5215 51.2881 48.6619C51.4019 48.5665 51.5145 48.4704 51.6254 48.3721C51.6884 48.3163 51.75 48.2591 51.8119 48.2022C52.4286 48.3916 53.1133 48.8624 53.4909 48.8941C52.8343 48.3739 52.3692 48.0071 51.8763 48.1435C52.02 48.01 52.1604 47.8732 52.299 47.7342C52.8656 47.9099 53.4938 48.3408 53.8405 48.37C53.2368 47.8915 52.8084 47.5539 52.3555 47.6777C52.4739 47.5578 52.5917 47.4369 52.7065 47.3137C52.7346 47.2838 52.7616 47.2536 52.7897 47.2234C53.2944 47.4196 53.8221 47.8609 54.1429 47.916C53.6321 47.4257 53.2764 47.0866 52.8098 47.2014C52.9203 47.0815 53.0294 46.9606 53.1367 46.8382C53.6007 47.0193 54.086 47.4246 54.3809 47.4754C53.9118 47.0246 53.5845 46.7129 53.1565 46.8158C53.2703 46.6855 53.3826 46.5534 53.4927 46.4202C53.9021 46.6124 54.3157 47.0016 54.5796 47.0621Z" fill="#263238"/>
    <path d="M60.8468 46.8001C60.5865 46.9146 60.237 47.3826 59.8539 47.6763C59.7412 47.6223 59.6293 47.5673 59.518 47.5115C59.9097 47.4337 60.1552 47.0449 60.4922 46.5085C60.2096 46.6331 59.8305 47.1403 59.4147 47.4593C59.3856 47.4441 59.356 47.4301 59.3269 47.415C59.1764 47.3372 59.0274 47.2569 58.8794 47.1749C59.2862 47.1137 59.6016 46.7069 60.0289 46.1514C59.7132 46.259 59.2362 46.7882 58.7498 47.1029C58.5853 47.01 58.4226 46.9146 58.2616 46.8159C58.7448 46.7961 59.0997 46.3375 59.5926 45.6974C59.2412 45.8173 58.7055 46.4178 58.1644 46.7555C58.118 46.7263 58.0712 46.6982 58.0251 46.6683C57.8808 46.5762 57.7389 46.4804 57.5982 46.3832C58.1194 46.3854 58.5327 45.9109 59.1048 45.2503C58.716 45.3579 58.0982 45.9746 57.4898 46.308C57.3357 46.1993 57.1845 46.0873 57.0358 45.9717C57.6219 46.0009 58.077 45.4789 58.7134 44.7441C58.2883 44.8622 57.6108 45.5405 56.9458 45.9001C56.9012 45.8645 56.8555 45.8299 56.8116 45.7935L56.8105 45.7928L56.8094 45.7917C56.7691 45.7601 56.7108 45.7669 56.6791 45.8072C56.6474 45.8472 56.6542 45.9055 56.6946 45.9375C56.7435 45.9761 56.7939 46.0131 56.8432 46.0506C56.8846 46.8109 56.6452 47.7588 56.7648 48.1893C57.0603 47.2839 57.2709 46.6331 56.9725 46.1485C57.1305 46.2651 57.2918 46.3767 57.4549 46.4855C57.4912 47.1849 57.2724 48.0543 57.3822 48.4496C57.6565 47.6101 57.8509 47.0078 57.5679 46.5603C57.6921 46.6413 57.817 46.7209 57.9438 46.7983C58.0154 46.8422 58.0881 46.8843 58.1608 46.9272C58.1601 47.5723 57.9099 48.3647 57.9898 48.7351C58.2958 47.9553 58.5108 47.4027 58.2361 46.9718C58.4056 47.0701 58.5777 47.1644 58.7509 47.2566C58.7484 47.8499 58.5198 48.5763 58.5932 48.9165C58.8744 48.1994 59.072 47.6911 58.8214 47.294C58.9708 47.3725 59.121 47.4495 59.2722 47.5237C59.3089 47.5417 59.346 47.559 59.3827 47.5766C59.3424 48.1163 59.0745 48.7502 59.1156 49.0731C59.4352 48.4413 59.6556 48.0021 59.4093 47.5892C59.5562 47.6598 59.7038 47.7289 59.8525 47.7959C59.8147 48.2927 59.5688 48.8751 59.6066 49.1718C59.9004 48.5915 60.103 48.1875 59.8795 47.8081C60.0375 47.879 60.1963 47.9478 60.3561 48.014C60.2917 48.4619 60.0408 48.9713 60.0595 49.2413C60.3561 48.7355 60.5624 48.3812 60.3907 48.0284C60.4782 48.0644 60.566 48.1004 60.6538 48.1353C60.705 48.1555 60.7564 48.1742 60.8079 48.194C60.7485 48.6066 60.517 49.076 60.5347 49.3248C60.8083 48.8582 60.9987 48.5313 60.8392 48.2059C60.98 48.2595 61.1218 48.311 61.2644 48.3596C61.2338 48.7279 61.047 49.1412 61.075 49.3662C61.2997 48.9561 61.4548 48.671 61.2849 48.3668C61.3112 48.3758 61.3371 48.3855 61.3638 48.3942C61.4689 48.4287 61.5744 48.4622 61.6806 48.4935C61.6496 48.8301 61.4815 49.2049 61.507 49.4101C61.7112 49.0379 61.853 48.7772 61.7079 48.5018C61.835 48.5385 61.9632 48.5713 62.0946 48.5954C62.1104 48.5983 62.1259 48.5882 62.1291 48.5724C62.1324 48.5562 62.1219 48.5407 62.1061 48.5371L62.1054 48.5367C61.9855 48.5123 61.8663 48.4799 61.7482 48.4435C62.0013 48.3859 62.1424 48.1458 62.3347 47.8157C62.1518 47.8967 61.9268 48.2149 61.6654 48.4165C61.5726 48.3866 61.48 48.3549 61.3882 48.3225C61.3666 48.315 61.345 48.3063 61.3234 48.2988C61.624 48.2538 61.7817 47.9856 62.0002 47.6101C61.7979 47.6997 61.5481 48.0561 61.2576 48.2743C61.1287 48.2271 61.0005 48.1775 60.8734 48.126C61.2133 48.0781 61.3922 47.7527 61.6431 47.2922C61.4221 47.4049 61.1409 47.8405 60.8202 48.1044C60.7759 48.0864 60.7316 48.0687 60.6873 48.0507C60.6042 48.0158 60.5214 47.9798 60.4386 47.9435C60.8004 47.8862 60.9933 47.5352 61.263 47.0406C61.0246 47.1619 60.7219 47.6299 60.3763 47.9168C60.2337 47.8542 60.0922 47.7894 59.9515 47.7228C60.3115 47.6504 60.5376 47.2926 60.8468 46.8001Z" fill="#263238"/>
    <path d="M58.7682 51.6C59.0886 51.708 59.4141 51.9578 59.6196 51.9805C59.305 51.6961 59.0839 51.4977 58.7823 51.5755C58.8474 51.4603 58.9086 51.3429 58.9626 51.2209C58.9691 51.2061 58.9626 51.1889 58.9479 51.182C58.9331 51.1752 58.9155 51.1817 58.9083 51.1964L58.9079 51.1975C58.8564 51.3084 58.7974 51.4167 58.7347 51.5233C58.7373 51.2637 58.5364 51.0711 58.2595 50.8076C58.2963 51.0042 58.5537 51.2969 58.6894 51.5975C58.6386 51.6806 58.5868 51.7634 58.5342 51.8455C58.5216 51.8649 58.5083 51.8837 58.4957 51.9027C58.5213 51.6 58.297 51.3847 57.9823 51.0852C58.0227 51.3026 58.3117 51.6284 58.4568 51.9611C58.3809 52.0752 58.3035 52.1886 58.2239 52.3005C58.2559 51.9589 57.9805 51.7098 57.5903 51.3591C57.6486 51.6 58.0079 51.9744 58.1904 52.3477C58.1627 52.3866 58.1353 52.4258 58.1073 52.4643C58.054 52.5374 57.9996 52.6094 57.9453 52.6818C57.973 52.3164 57.6763 52.0475 57.2573 51.6709C57.3203 51.9308 57.7059 52.3337 57.9049 52.7358C57.811 52.86 57.7152 52.9827 57.618 53.1041C57.6299 52.7376 57.3343 52.4352 56.9265 52.0201C56.9779 52.2998 57.3523 52.748 57.5493 53.1887C57.4708 53.2859 57.3916 53.382 57.3113 53.4774C57.3261 53.0785 57.0046 52.7495 56.5607 52.298C56.6165 52.6019 57.0226 53.0879 57.2364 53.5659C57.2152 53.5908 57.1943 53.6163 57.1731 53.6412C57.0625 53.7693 56.9499 53.8961 56.8361 54.021C56.8707 53.6109 56.5477 53.2106 56.106 52.6659C56.1377 52.9979 56.5423 53.5843 56.7364 54.1301C56.6082 54.269 56.4775 54.4051 56.3443 54.539C56.4365 54.0642 56.0725 53.6131 55.5635 52.9856C55.5988 53.3553 56.0596 54.0152 56.263 54.6197C56.2241 54.6582 56.1856 54.6971 56.1463 54.7352C56.0232 54.8544 55.8972 54.9703 55.7701 55.0851C55.8925 54.5783 55.5264 54.0667 55.0159 53.3571C55.0311 53.7603 55.4879 54.5041 55.6719 55.173C55.5307 55.2975 55.3867 55.4192 55.2399 55.5369C55.4033 54.9735 55.0012 54.4101 54.4331 53.621C54.4497 54.062 54.9529 54.8778 55.1495 55.6082C55.1045 55.6435 55.0602 55.6795 55.0149 55.7141L55.0138 55.7148L55.0127 55.7159C54.9724 55.7475 54.9659 55.8062 54.9976 55.8462C55.0293 55.8861 55.0876 55.893 55.1279 55.8613C55.1769 55.8224 55.2244 55.7821 55.2726 55.7425C56.0218 55.8779 56.889 56.33 57.3354 56.3131C56.5229 55.8163 55.9383 55.461 55.3979 55.6395C55.548 55.5125 55.6938 55.3814 55.8375 55.2479C56.5265 55.3739 57.3217 55.7879 57.7318 55.7727C56.9783 55.3116 56.4372 54.9833 55.9368 55.1553C56.0445 55.0531 56.1507 54.9501 56.2551 54.8447C56.3145 54.7853 56.3724 54.7241 56.4307 54.6636C57.0582 54.8137 57.7714 55.2399 58.1501 55.2479C57.4621 54.7701 56.9743 54.4332 56.4916 54.6009C56.6266 54.4587 56.758 54.3129 56.8876 54.1657C57.4643 54.3054 58.1184 54.6956 58.4662 54.7028C57.8333 54.2633 57.3844 53.9537 56.9405 54.1056C57.0514 53.9785 57.1608 53.85 57.2681 53.7204C57.294 53.6887 57.3196 53.6567 57.3451 53.625C57.861 53.7888 58.4158 54.1959 58.7394 54.2309C58.1987 53.7737 57.8221 53.4579 57.3635 53.6019C57.4661 53.4752 57.5673 53.3478 57.6666 53.2185C58.1415 53.3701 58.6509 53.7438 58.9486 53.7758C58.4518 53.3557 58.1058 53.0655 57.685 53.1951C57.7905 53.058 57.8941 52.919 57.9957 52.779C58.4161 52.9449 58.8539 53.3071 59.121 53.351C58.6977 52.9457 58.4007 52.6631 58.0176 52.7484C58.0731 52.6717 58.1285 52.5947 58.1825 52.5169C58.2138 52.4715 58.2441 52.4258 58.2754 52.3808C58.6631 52.5338 59.0663 52.8675 59.3125 52.9079C58.9219 52.5338 58.648 52.2732 58.2945 52.3527C58.3794 52.2282 58.4619 52.1022 58.5421 51.9747C58.8935 52.0896 59.2521 52.3668 59.4774 52.3913C59.1307 52.0777 58.8888 51.861 58.5537 51.9564C58.5684 51.9326 58.5839 51.9099 58.5987 51.8862C58.6563 51.7908 58.7131 51.6961 58.7682 51.6Z" fill="#263238"/>
    <path d="M60.9526 55.6178C61.0264 55.5202 61.1067 55.4266 61.1902 55.3355C61.1334 55.5886 61.2896 55.8194 61.5049 56.1347C61.5103 55.9349 61.3198 55.5947 61.25 55.2725C61.317 55.2016 61.3854 55.1314 61.4538 55.0626C61.47 55.0464 61.4869 55.031 61.5031 55.0148C61.4145 55.3053 61.5888 55.563 61.8339 55.9219C61.84 55.7009 61.6255 55.3218 61.5535 54.9661C61.6518 54.87 61.7511 54.7757 61.8526 54.6828C61.7497 55.0104 61.9671 55.3118 62.2749 55.7362C62.2681 55.4885 61.9956 55.0472 61.8951 54.644C61.9304 54.6119 61.9653 54.5791 62.001 54.5471C62.0683 54.487 62.1367 54.4276 62.2047 54.3682C62.101 54.7196 62.335 55.0446 62.6659 55.5007C62.6587 55.2333 62.366 54.7588 62.2555 54.3239C62.3736 54.2224 62.4927 54.1223 62.613 54.0237C62.5248 54.3794 62.7505 54.7372 63.0622 55.2282C63.0705 54.9438 62.7984 54.4272 62.6979 53.9553C62.7951 53.8768 62.8927 53.799 62.9913 53.7227C62.893 54.1097 63.1389 54.4985 63.478 55.0331C63.487 54.7246 63.1918 54.1641 63.0828 53.6518C63.1087 53.6316 63.1342 53.6115 63.1605 53.5917C63.2955 53.4894 63.432 53.3894 63.5695 53.2907C63.4496 53.6846 63.6814 54.1436 63.9997 54.7685C64.0382 54.4373 63.7653 53.7789 63.6901 53.2047C63.8445 53.096 64.0008 52.9901 64.1592 52.8872C63.9694 53.3318 64.2308 53.8494 64.5973 54.5698C64.6401 54.2012 64.3276 53.4592 64.2556 52.8252C64.3017 52.7957 64.3474 52.7655 64.3939 52.7367C64.5393 52.646 64.6866 52.5588 64.8349 52.4735C64.6088 52.9433 64.8597 53.5204 65.2107 54.321C65.2802 53.9236 64.9893 53.101 64.9494 52.4084C65.1135 52.3158 65.2798 52.2273 65.448 52.143C65.17 52.66 65.4454 53.295 65.8353 54.1857C65.9116 53.7511 65.5902 52.8476 65.5513 52.0926C65.6028 52.0678 65.6535 52.0415 65.7054 52.0174L65.7064 52.0167L65.7079 52.016C65.754 51.9933 65.7727 51.9378 65.75 51.8918C65.7273 51.846 65.6719 51.827 65.6258 51.8496C65.5696 51.8774 65.5149 51.9069 65.4595 51.9353C64.7553 51.6459 64.0018 51.0224 63.5619 50.9453C64.2524 51.6012 64.7496 52.071 65.3151 52.0098C65.142 52.1024 64.9717 52.1999 64.8036 52.3007C64.1563 52.0329 63.4654 51.4615 63.0612 51.391C63.7016 51.9997 64.1617 52.4339 64.6873 52.3706C64.5606 52.4476 64.4349 52.5264 64.3111 52.6074C64.2405 52.6535 64.171 52.7007 64.1016 52.7478C63.5194 52.4699 62.9114 51.9033 62.5428 51.8165C63.1155 52.4278 63.522 52.8591 64.0292 52.7968C63.8676 52.9077 63.7084 53.0225 63.5511 53.1395C63.0162 52.8825 62.4589 52.3637 62.1201 52.2838C62.6468 52.8458 63.0208 53.2428 63.487 53.187C63.352 53.2882 63.2181 53.3908 63.086 53.4952C63.054 53.5207 63.0226 53.547 62.9906 53.5722C62.5204 53.304 62.0632 52.7896 61.754 52.6881C62.1871 53.2482 62.4891 53.636 62.9676 53.591C62.8405 53.6932 62.7148 53.7969 62.5906 53.9023C62.1583 53.6547 61.7382 53.1827 61.4538 53.0891C61.8516 53.6039 62.1291 53.9603 62.568 53.9218C62.4362 54.0341 62.3059 54.1479 62.1774 54.2634C61.8008 54.0132 61.4487 53.5672 61.1971 53.4686C61.5261 53.9538 61.7576 54.2926 62.15 54.289C62.0798 54.3527 62.0096 54.4161 61.9401 54.4809C61.9002 54.5183 61.8606 54.5568 61.821 54.5946C61.4739 54.3639 61.1496 53.9531 60.9174 53.8617C61.2208 54.3092 61.4343 54.6216 61.7965 54.6177C61.6874 54.7217 61.5801 54.8276 61.475 54.9356C61.1557 54.7498 60.863 54.4038 60.6477 54.3322C60.9213 54.7113 61.1121 54.9737 61.4599 54.951C61.4404 54.9712 61.4203 54.9903 61.4012 55.0104C61.3249 55.0903 61.2493 55.1714 61.1755 55.2538C60.885 55.081 60.6189 54.7685 60.4224 54.7034C60.6704 55.0475 60.845 55.2876 61.156 55.2747C61.0682 55.3737 60.9836 55.4756 60.9055 55.5836C60.8961 55.5969 60.8986 55.6149 60.9116 55.6246C60.9246 55.6347 60.9433 55.6318 60.9534 55.6188L60.9526 55.6178Z" fill="#263238"/>
    <path d="M56.732 60.7461C56.8757 60.6125 57.0161 60.4757 57.1547 60.3367C57.7213 60.5124 58.3492 60.9437 58.6962 60.9725C58.0925 60.4941 57.6641 60.1564 57.2112 60.2802C57.3296 60.1603 57.4474 60.0394 57.5626 59.9163C57.5906 59.8864 57.6176 59.8558 57.6457 59.8259C58.1504 60.0221 58.6782 60.4635 58.999 60.5185C58.4881 60.0282 58.1324 59.6891 57.6659 59.8043C57.7764 59.6844 57.8855 59.5631 57.9928 59.4407C58.4572 59.6221 58.9421 60.0271 59.2369 60.0779C58.7678 59.6275 58.4406 59.3154 58.0126 59.4184C58.1263 59.2881 58.2386 59.1563 58.3488 59.0227C58.7581 59.215 59.1721 59.6041 59.4356 59.665C59.0386 59.2337 58.7599 58.9327 58.3726 58.9939C58.4327 58.9205 58.4928 58.8474 58.5518 58.7733C58.586 58.7301 58.6192 58.6865 58.653 58.6433C59.0303 58.8204 59.4115 59.179 59.6545 59.2348C59.2884 58.837 59.0314 58.5594 58.6735 58.6167C58.766 58.4979 58.8564 58.3773 58.9446 58.2549C59.288 58.3917 59.6282 58.6908 59.8518 58.7297C59.5256 58.3949 59.2978 58.1634 58.9576 58.2369C58.9738 58.2142 58.9907 58.1922 59.0069 58.1695C59.0706 58.0792 59.1336 57.9881 59.1944 57.8956C59.5073 58.0234 59.8165 58.2937 60.0203 58.3294C59.724 58.0255 59.5163 57.8135 59.2103 57.8722C59.2826 57.7613 59.351 57.6479 59.4126 57.5295C59.4202 57.5151 59.4148 57.4974 59.4004 57.4895C59.386 57.4819 59.368 57.487 59.36 57.5014L59.3597 57.5021C59.301 57.6097 59.2355 57.7141 59.1664 57.8164C59.1854 57.5575 58.9968 57.3523 58.7376 57.0723C58.7617 57.2706 59 57.5791 59.1167 57.8877C59.0609 57.9676 59.0036 58.0468 58.946 58.1256C58.9324 58.144 58.918 58.162 58.9043 58.1803C58.9489 57.8797 58.7387 57.6504 58.4435 57.3318C58.4701 57.5514 58.738 57.8949 58.8618 58.2358C58.779 58.3452 58.6944 58.4532 58.6076 58.5598C58.6613 58.221 58.4021 57.9546 58.0349 57.5802C58.0781 57.8243 58.4129 58.2207 58.5713 58.6044C58.541 58.6415 58.5115 58.6789 58.4809 58.7157C58.4233 58.7851 58.3643 58.8539 58.3056 58.9223C58.3567 58.5598 58.0774 58.2725 57.6828 57.87C57.7292 58.1332 58.0885 58.5594 58.262 58.9738C58.1602 59.0915 58.0572 59.2078 57.9524 59.3233C57.9877 58.9583 57.7116 58.6379 57.3307 58.198C57.3646 58.4806 57.7098 58.9515 57.8786 59.4036C57.7944 59.4954 57.7091 59.5865 57.6227 59.6769C57.6626 59.2794 57.3628 58.9309 56.9484 58.4525C56.9851 58.7589 57.3595 59.2697 57.5428 59.7607C57.5201 59.7841 57.4978 59.8083 57.4747 59.8317C57.3563 59.953 57.236 60.0718 57.1144 60.1895C57.1748 59.7823 56.8778 59.3622 56.4714 58.7909C56.4822 59.1243 56.849 59.7352 57.0078 60.2921C56.871 60.4224 56.732 60.5502 56.5906 60.6751C56.7126 60.2071 56.3782 59.7337 55.9094 59.0757C55.9213 59.4468 56.3393 60.1344 56.5042 60.7507C56.4628 60.7867 56.4221 60.8235 56.3803 60.8587C56.25 60.9696 56.1168 61.0776 55.9829 61.1838C56.1373 60.6859 55.804 60.1521 55.3396 59.4119C55.3291 59.8104 55.7273 60.5675 55.8731 61.2407C55.9656 61.2472 56.0581 61.2537 56.1503 61.2598C56.2619 61.1662 56.3728 61.0719 56.4818 60.975C56.5448 60.9192 56.6064 60.862 56.6683 60.8051C57.092 60.9351 57.546 61.1957 57.9125 61.3581C58.0039 61.362 58.0946 61.3656 58.1857 61.3696C57.6122 60.9196 57.1828 60.6211 56.732 60.7461Z" fill="#263238"/>
    <path d="M54.7404 59.6377C54.7314 59.9862 55.0097 60.5881 55.2012 61.1911C55.292 61.1979 55.3834 61.2055 55.4738 61.212C55.4442 60.7659 55.1386 60.272 54.7404 59.6377Z" fill="#263238"/>
    <path d="M56.1689 61.2606C56.3507 61.2725 56.5318 61.284 56.7122 61.2948C56.5246 61.2332 56.3461 61.2177 56.1689 61.2606Z" fill="#263238"/>
    <path d="M66.6458 60.507C66.6562 60.4861 66.6663 60.4631 66.6764 60.4408C66.6321 60.4257 66.5878 60.4113 66.5439 60.3958C66.5223 60.3882 66.5007 60.3796 66.4791 60.372C66.5864 60.3558 66.6746 60.3105 66.7548 60.2431C66.7876 60.1492 66.8186 60.0487 66.847 59.9382C66.7149 60.0729 66.5705 60.2302 66.4136 60.3479C66.2847 60.3007 66.1565 60.2511 66.0294 60.1996C66.3693 60.1517 66.5482 59.8263 66.7991 59.3658C66.5781 59.4785 66.2969 59.9141 65.9762 60.1783C65.9319 60.1603 65.8876 60.1427 65.8433 60.1243C65.7602 60.0894 65.6774 60.0534 65.5946 60.0171C65.9564 59.9598 66.1493 59.6088 66.419 59.1142C66.1806 59.2355 65.8779 59.7039 65.5323 59.9904C65.3897 59.9278 65.2482 59.863 65.1075 59.7964C65.4668 59.7233 65.6925 59.3655 66.0021 58.873C65.7418 58.9878 65.3922 59.4555 65.0092 59.7492C64.8965 59.6952 64.7846 59.6405 64.6733 59.5843C65.065 59.5066 65.3105 59.1178 65.6475 58.5814C65.3649 58.7059 64.9858 59.2132 64.57 59.5321C64.5408 59.517 64.5113 59.503 64.4822 59.4879C64.3317 59.4101 64.1826 59.3298 64.0347 59.2477C64.4415 59.1865 64.7568 58.7801 65.1842 58.2243C64.8684 58.3319 64.3914 58.8615 63.9054 59.1761C63.7409 59.0836 63.5778 58.9878 63.4173 58.8892C63.9004 58.869 64.2554 58.4107 64.7482 57.7703C64.3968 57.8902 63.8612 58.4907 63.3201 58.8283C63.2736 58.7992 63.2265 58.7711 63.1808 58.7416C63.0364 58.6494 62.8946 58.5537 62.7538 58.4565C63.2751 58.4586 63.6884 57.9841 64.2604 57.3235C63.8716 57.4315 63.2538 58.0479 62.6454 58.3812C62.4914 58.2725 62.3402 58.1609 62.1915 58.045C62.7776 58.0741 63.2326 57.5521 63.8691 56.8174C63.4439 56.9355 62.7664 57.6137 62.1011 57.9737C62.0565 57.9381 62.0111 57.9035 61.9668 57.8671L61.9658 57.8661L61.9647 57.8653C61.9244 57.8337 61.866 57.8405 61.8344 57.8808C61.8027 57.9211 61.8095 57.9791 61.8498 58.0111C61.8988 58.0497 61.9492 58.0864 61.9985 58.1242C62.0399 58.8845 61.8005 59.8327 61.92 60.2629C62.216 59.3575 62.4266 58.7067 62.1278 58.2225C62.2858 58.3391 62.4471 58.4507 62.6102 58.5594C62.6465 59.2589 62.4276 60.1283 62.5374 60.5236C62.8118 59.6837 63.0062 59.0818 62.7232 58.6343C62.8474 58.7153 62.9727 58.7949 63.099 58.8723C63.1707 58.9162 63.2434 58.9583 63.3161 59.0011C63.3154 59.6463 63.0648 60.4386 63.1451 60.8091C63.4511 60.0293 63.666 59.4767 63.3914 59.0458C63.5609 59.1441 63.733 59.2387 63.9062 59.3302C63.9036 59.9235 63.675 60.6499 63.7485 60.9901C64.0296 60.273 64.2273 59.7647 63.9767 59.3676C64.1261 59.4461 64.2762 59.5231 64.4274 59.5973C64.4642 59.6153 64.5012 59.6326 64.538 59.6506C64.4976 60.1906 64.2298 60.8242 64.2708 61.1471C64.5905 60.5153 64.8108 60.0761 64.5646 59.6632C64.7115 59.7337 64.8591 59.8029 65.0078 59.8698C64.971 60.3515 64.741 60.9113 64.7615 61.2159C64.7673 61.2151 64.7727 61.2141 64.7784 61.2133C65.0628 60.651 65.254 60.2543 65.0351 59.8824C65.1932 59.9533 65.3519 60.0221 65.5118 60.0883C65.4596 60.4519 65.2864 60.8541 65.2324 61.1377C65.2644 61.1316 65.2979 61.1259 65.3292 61.1194C65.5604 60.7147 65.6954 60.4077 65.5467 60.1024C65.6342 60.1384 65.7216 60.1747 65.8098 60.2093C65.861 60.2295 65.9124 60.2482 65.9639 60.268C65.9279 60.5178 65.8296 60.7878 65.7609 61.0179C65.8181 61.0024 65.8746 60.9865 65.9276 60.97C66.0514 60.7129 66.1011 60.4959 65.9956 60.2802C66.1364 60.3339 66.2782 60.3853 66.4208 60.4339C66.4107 60.5545 66.383 60.6787 66.3524 60.8004C66.411 60.7705 66.4636 60.7389 66.5108 60.7061C66.51 60.6172 66.491 60.5297 66.4413 60.4408C66.4676 60.4498 66.4935 60.4595 66.5201 60.4681C66.5612 60.4811 66.6036 60.4937 66.6458 60.507Z" fill="#263238"/>
    <path d="M52.7932 52.9926L52.7946 52.9923L52.7961 52.9919C52.8454 52.9782 52.8742 52.9271 52.8605 52.8778C52.8468 52.8285 52.7957 52.7997 52.7464 52.8134C52.6863 52.8299 52.6269 52.849 52.5671 52.8666C51.9292 52.4512 51.3057 51.6977 50.8877 51.54C51.4436 52.3133 51.8442 52.8677 52.4116 52.9127C52.224 52.9714 52.0386 53.0355 51.8547 53.1032C51.4216 52.8195 50.9968 52.3695 50.649 52.0952C50.6494 52.179 50.648 52.2579 50.648 52.341C51.0062 52.8105 51.3204 53.1226 51.7272 53.15C51.5886 53.2025 51.4504 53.2562 51.3132 53.3127C51.2355 53.3447 51.1584 53.3782 51.081 53.4117C50.932 53.3022 50.7862 53.169 50.6447 53.0312C50.6433 53.132 50.6418 53.232 50.64 53.331C50.7513 53.3969 50.8697 53.4372 51.0008 53.4459C50.8766 53.5002 50.7545 53.5589 50.6318 53.6169C50.6303 53.668 50.6289 53.718 50.6274 53.7688C50.7876 53.6964 50.9489 53.6262 51.1116 53.5596C50.8424 53.9614 51.0026 54.5187 51.2283 55.2945C51.3392 54.9402 51.1707 54.1529 51.2182 53.5172C51.269 53.4966 51.3197 53.4754 51.3708 53.456C51.5307 53.394 51.6916 53.3361 51.8532 53.2796C51.5436 53.699 51.6826 54.3128 51.8777 55.1649C52.0203 54.7876 51.8878 53.9247 51.9778 53.2371C52.1564 53.177 52.336 53.1208 52.5171 53.0697C52.1474 53.5254 52.2996 54.2008 52.5167 55.1483C52.6726 54.7358 52.5254 53.7882 52.628 53.0391C52.683 53.0229 52.7378 53.0067 52.7932 52.9926Z" fill="#263238"/>
    <path d="M50.5674 55.25C50.5796 55.2925 50.5915 55.3335 50.6041 55.3778C50.6675 55.1751 50.6318 54.8187 50.6059 54.4375C50.5947 54.7151 50.5818 54.9865 50.5674 55.25Z" fill="#263238"/>
    <path d="M51.8435 60.5163C51.7996 60.4447 51.7538 60.3737 51.7085 60.3032C52.0012 59.7283 52.5829 59.135 52.6794 58.7685C52.0537 59.3254 51.612 59.7207 51.6617 60.2294C51.5547 60.0649 51.4442 59.9029 51.3316 59.7427C51.6023 59.2145 52.1351 58.6702 52.2236 58.334C51.6484 58.8463 51.2419 59.2099 51.2855 59.6771C51.1879 59.5396 51.0889 59.4032 50.9874 59.2685C50.9629 59.2358 50.9373 59.2037 50.9129 59.171C51.1929 58.7077 51.7189 58.2638 51.8283 57.9574C51.2574 58.3761 50.8621 58.6681 50.8949 59.1476C50.7959 59.0183 50.6954 58.8898 50.5932 58.7631C50.8517 58.3369 51.3344 57.9293 51.4352 57.6475C50.9103 58.0319 50.5471 58.3005 50.5745 58.7401C50.5017 58.6497 50.4269 58.5611 50.3524 58.4726C50.3491 58.5223 50.3459 58.5737 50.343 58.6223C50.3855 58.676 50.429 58.7289 50.4708 58.7829C50.4254 58.7703 50.3801 58.7635 50.334 58.7609C50.3311 58.8146 50.329 58.8661 50.3261 58.9186C50.397 58.8999 50.4676 58.8826 50.537 58.8697C50.613 58.9687 50.6879 59.0684 50.762 59.1688C50.617 59.1281 50.4708 59.1364 50.3153 59.1796C50.312 59.2541 50.3081 59.3312 50.3059 59.4035C50.4791 59.3477 50.6573 59.2945 50.8304 59.2621C50.8495 59.2883 50.8693 59.3146 50.8887 59.3413C50.9877 59.4788 51.0842 59.6181 51.1793 59.7578C50.9266 59.6739 50.6414 59.7376 50.3009 59.8741C50.3009 59.9403 50.2991 60.0105 50.3001 60.0746C50.6011 60.0058 50.9442 59.914 51.2621 59.8805C51.3668 60.0375 51.4687 60.1966 51.5677 60.3572C51.2243 60.2002 50.8283 60.3187 50.3246 60.5429C50.3282 60.5894 50.3286 60.6419 50.3333 60.6869C50.3606 60.6905 50.388 60.6938 50.4154 60.6974C50.7822 60.6193 51.2268 60.4904 51.6271 60.4551C51.6556 60.5019 51.6843 60.5483 51.7121 60.5955C51.7661 60.6877 51.8172 60.7813 51.869 60.8741C51.9364 60.8817 52.0033 60.8893 52.0706 60.8968C51.9965 60.769 51.9212 60.6419 51.8435 60.5163Z" fill="#263238"/>
    <path d="M50.4366 57.2481C50.4322 57.3065 50.4286 57.359 50.4243 57.4166C50.5395 57.2964 50.636 57.1862 50.6763 57.0908C50.5906 57.1463 50.5114 57.1977 50.4366 57.2481Z" fill="#263238"/>
    <path d="M52.5527 60.9503C52.6593 60.9618 52.7659 60.9733 52.8728 60.9841C53.1604 60.5273 53.465 60.1021 53.5237 59.8105C53.0895 60.2443 52.7374 60.6004 52.5527 60.9503Z" fill="#263238"/>
    <path d="M52.1894 60.9106C52.4871 60.3026 53.0145 59.678 53.0912 59.2979C52.467 59.9221 52.0213 60.3706 52.0706 60.8973C52.1102 60.9016 52.1498 60.9063 52.1894 60.9106Z" fill="#263238"/>
    <path d="M50.39 57.8928C50.3832 57.9889 50.3771 58.0843 50.3706 58.1775C50.6309 57.8712 50.9729 57.5929 51.0622 57.3809C50.7738 57.5655 50.5391 57.7193 50.39 57.8928Z" fill="#263238"/>
  </g>
  <path d="M75.3953 49.092L76.9869 47.4043L79.1908 50.5079C79.1908 50.5079 77.3303 51.8283 75.5476 51.7754L75.3431 51.3197C75.0109 50.5784 75.0299 49.7591 75.3953 49.092Z" fill="#FFB573"/>
  <path d="M79.5374 47.5664L80.1599 48.7393C80.4435 49.2739 80.2434 49.9373 79.7109 50.2257L79.1907 50.5076L76.9868 47.404L78.2472 47.0271C78.7508 46.8759 79.2908 47.102 79.5374 47.5664Z" fill="#FFB573"/>
  <path d="M66.9859 43.0319L67.1198 43.721L67.271 44.4485C67.3794 44.9338 67.4852 45.4209 67.6076 45.9019C67.8423 46.867 68.1202 47.8124 68.4226 48.7268C68.7355 49.6343 69.0865 50.5099 69.49 51.2857C69.8961 52.0539 70.3641 52.7246 70.8094 53.1231L70.0441 52.7462C69.8198 52.7156 69.7795 52.784 69.8958 52.78C70.0059 52.78 70.2154 52.7224 70.4415 52.6238C70.9012 52.4218 71.4477 52.1003 71.9748 51.7263C72.5119 51.358 73.0497 50.9393 73.589 50.5066C74.1258 50.0789 74.674 49.6066 75.1968 49.1786L75.2522 49.1329C75.7936 48.6897 76.5918 48.7689 77.0353 49.3103C77.3647 49.7125 77.4046 50.2571 77.1822 50.692C76.8132 51.4106 76.4172 52.0435 75.9754 52.6889C75.5341 53.3272 75.0517 53.945 74.5084 54.548C73.9537 55.1413 73.3615 55.7345 72.5684 56.2695C72.167 56.5352 71.7184 56.7965 71.1309 57.0028C70.8368 57.1054 70.5027 57.1897 70.1168 57.2249C69.733 57.2609 69.2913 57.2455 68.8341 57.1328C68.5825 57.0705 68.3539 56.9621 68.1555 56.8192L68.0684 56.7555C66.8167 55.8479 65.9948 54.7658 65.3292 53.6984C65.0001 53.162 64.7067 52.6216 64.4414 52.0802C64.1844 51.5366 63.9511 50.9915 63.7358 50.4458C63.3088 49.3553 62.9694 48.2559 62.6803 47.1536C62.5399 46.601 62.4052 46.0487 62.2947 45.49C62.2382 45.211 62.1835 44.9309 62.1349 44.6483C62.0863 44.3575 62.0449 44.0975 61.9984 43.7602C61.8087 42.3818 62.7724 41.111 64.1509 40.9213C65.4804 40.7384 66.7101 41.6287 66.9657 42.929L66.9859 43.0319Z" fill="#FFB573"/>
  <path d="M63.5338 39.2523C65.6265 39.4687 67.3023 40.8572 68.4723 45.2823C67.5723 46.5276 61.9023 49.2603 61.9023 49.2603C61.9023 49.2603 58.7455 38.757 63.5338 39.2523Z" fill="#263238"/>
</svg>